<mxfile host="app.diagrams.net" modified="2020-09-25T20:20:45.545Z" agent="5.0 (Windows NT 10.0; WOW64) AppleWebKit/537.36 (KHTML, like Gecko) Chrome/85.0.4183.83 YaBrowser/20.9.0.928 Yowser/2.5 Safari/537.36" etag="XrJPQ6D8YvSqaW5wvE89" version="13.7.5" type="github">
  <diagram name="Page-1" id="9f46799a-70d6-7492-0946-bef42562c5a5">
    <mxGraphModel dx="1374" dy="789" grid="1" gridSize="10" guides="1" tooltips="1" connect="1" arrows="1" fold="1" page="1" pageScale="1" pageWidth="1100" pageHeight="850" background="#ffffff" math="0" shadow="0">
      <root>
        <mxCell id="0" />
        <mxCell id="1" parent="0" />
        <mxCell id="tNgVJt8ZhCqIQZxRR8ER-71" value="" style="edgeStyle=entityRelationEdgeStyle;fontSize=12;html=1;endArrow=ERoneToMany;exitX=1;exitY=0.5;exitDx=0;exitDy=0;entryX=0;entryY=0.5;entryDx=0;entryDy=0;" edge="1" parent="1" source="tNgVJt8ZhCqIQZxRR8ER-35" target="tNgVJt8ZhCqIQZxRR8ER-51">
          <mxGeometry width="100" height="100" relative="1" as="geometry">
            <mxPoint x="500" y="470" as="sourcePoint" />
            <mxPoint x="600" y="370" as="targetPoint" />
          </mxGeometry>
        </mxCell>
        <mxCell id="tNgVJt8ZhCqIQZxRR8ER-72" value="" style="edgeStyle=entityRelationEdgeStyle;fontSize=12;html=1;endArrow=ERoneToMany;exitX=1;exitY=0.5;exitDx=0;exitDy=0;entryX=0;entryY=0.5;entryDx=0;entryDy=0;" edge="1" parent="1" source="tNgVJt8ZhCqIQZxRR8ER-15" target="tNgVJt8ZhCqIQZxRR8ER-48">
          <mxGeometry width="100" height="100" relative="1" as="geometry">
            <mxPoint x="250" y="465" as="sourcePoint" />
            <mxPoint x="370" y="465" as="targetPoint" />
          </mxGeometry>
        </mxCell>
        <mxCell id="tNgVJt8ZhCqIQZxRR8ER-75" value="" style="edgeStyle=entityRelationEdgeStyle;fontSize=12;html=1;endArrow=ERoneToMany;exitX=1;exitY=0.5;exitDx=0;exitDy=0;entryX=0;entryY=0.5;entryDx=0;entryDy=0;" edge="1" parent="1" source="tNgVJt8ZhCqIQZxRR8ER-28" target="tNgVJt8ZhCqIQZxRR8ER-45">
          <mxGeometry width="100" height="100" relative="1" as="geometry">
            <mxPoint x="500" y="470" as="sourcePoint" />
            <mxPoint x="600" y="370" as="targetPoint" />
          </mxGeometry>
        </mxCell>
        <mxCell id="tNgVJt8ZhCqIQZxRR8ER-27" value="Units" style="shape=table;startSize=30;container=1;collapsible=1;childLayout=tableLayout;fixedRows=1;rowLines=0;fontStyle=1;align=center;resizeLast=1;" vertex="1" parent="1">
          <mxGeometry x="100" y="190" width="200" height="90" as="geometry" />
        </mxCell>
        <mxCell id="tNgVJt8ZhCqIQZxRR8ER-28" value="" style="shape=partialRectangle;collapsible=0;dropTarget=0;pointerEvents=0;fillColor=none;top=0;left=0;bottom=1;right=0;points=[[0,0.5],[1,0.5]];portConstraint=eastwest;" vertex="1" parent="tNgVJt8ZhCqIQZxRR8ER-27">
          <mxGeometry y="30" width="200" height="30" as="geometry" />
        </mxCell>
        <mxCell id="tNgVJt8ZhCqIQZxRR8ER-29" value="PK" style="shape=partialRectangle;connectable=0;fillColor=none;top=0;left=0;bottom=0;right=0;fontStyle=1;overflow=hidden;" vertex="1" parent="tNgVJt8ZhCqIQZxRR8ER-28">
          <mxGeometry width="30" height="30" as="geometry" />
        </mxCell>
        <mxCell id="tNgVJt8ZhCqIQZxRR8ER-30" value="ID (int)" style="shape=partialRectangle;connectable=0;fillColor=none;top=0;left=0;bottom=0;right=0;align=left;spacingLeft=6;fontStyle=5;overflow=hidden;" vertex="1" parent="tNgVJt8ZhCqIQZxRR8ER-28">
          <mxGeometry x="30" width="170" height="30" as="geometry" />
        </mxCell>
        <mxCell id="tNgVJt8ZhCqIQZxRR8ER-31" value="" style="shape=partialRectangle;collapsible=0;dropTarget=0;pointerEvents=0;fillColor=none;top=0;left=0;bottom=0;right=0;points=[[0,0.5],[1,0.5]];portConstraint=eastwest;" vertex="1" parent="tNgVJt8ZhCqIQZxRR8ER-27">
          <mxGeometry y="60" width="200" height="30" as="geometry" />
        </mxCell>
        <mxCell id="tNgVJt8ZhCqIQZxRR8ER-32" value="" style="shape=partialRectangle;connectable=0;fillColor=none;top=0;left=0;bottom=0;right=0;editable=1;overflow=hidden;" vertex="1" parent="tNgVJt8ZhCqIQZxRR8ER-31">
          <mxGeometry width="30" height="30" as="geometry" />
        </mxCell>
        <mxCell id="tNgVJt8ZhCqIQZxRR8ER-33" value="Description (varchar(255))" style="shape=partialRectangle;connectable=0;fillColor=none;top=0;left=0;bottom=0;right=0;align=left;spacingLeft=6;overflow=hidden;" vertex="1" parent="tNgVJt8ZhCqIQZxRR8ER-31">
          <mxGeometry x="30" width="170" height="30" as="geometry" />
        </mxCell>
        <mxCell id="tNgVJt8ZhCqIQZxRR8ER-14" value="Materials" style="shape=table;startSize=30;container=1;collapsible=1;childLayout=tableLayout;fixedRows=1;rowLines=0;fontStyle=1;align=center;resizeLast=1;" vertex="1" parent="1">
          <mxGeometry x="100" y="300" width="120" height="90" as="geometry" />
        </mxCell>
        <mxCell id="tNgVJt8ZhCqIQZxRR8ER-15" value="" style="shape=partialRectangle;collapsible=0;dropTarget=0;pointerEvents=0;fillColor=none;top=0;left=0;bottom=1;right=0;points=[[0,0.5],[1,0.5]];portConstraint=eastwest;" vertex="1" parent="tNgVJt8ZhCqIQZxRR8ER-14">
          <mxGeometry y="30" width="120" height="30" as="geometry" />
        </mxCell>
        <mxCell id="tNgVJt8ZhCqIQZxRR8ER-16" value="PK" style="shape=partialRectangle;connectable=0;fillColor=none;top=0;left=0;bottom=0;right=0;fontStyle=1;overflow=hidden;" vertex="1" parent="tNgVJt8ZhCqIQZxRR8ER-15">
          <mxGeometry width="30" height="30" as="geometry" />
        </mxCell>
        <mxCell id="tNgVJt8ZhCqIQZxRR8ER-17" value="ID (int)" style="shape=partialRectangle;connectable=0;fillColor=none;top=0;left=0;bottom=0;right=0;align=left;spacingLeft=6;fontStyle=5;overflow=hidden;" vertex="1" parent="tNgVJt8ZhCqIQZxRR8ER-15">
          <mxGeometry x="30" width="90" height="30" as="geometry" />
        </mxCell>
        <mxCell id="tNgVJt8ZhCqIQZxRR8ER-18" value="" style="shape=partialRectangle;collapsible=0;dropTarget=0;pointerEvents=0;fillColor=none;top=0;left=0;bottom=0;right=0;points=[[0,0.5],[1,0.5]];portConstraint=eastwest;" vertex="1" parent="tNgVJt8ZhCqIQZxRR8ER-14">
          <mxGeometry y="60" width="120" height="30" as="geometry" />
        </mxCell>
        <mxCell id="tNgVJt8ZhCqIQZxRR8ER-19" value="" style="shape=partialRectangle;connectable=0;fillColor=none;top=0;left=0;bottom=0;right=0;editable=1;overflow=hidden;" vertex="1" parent="tNgVJt8ZhCqIQZxRR8ER-18">
          <mxGeometry width="30" height="30" as="geometry" />
        </mxCell>
        <mxCell id="tNgVJt8ZhCqIQZxRR8ER-20" value="Code (int)" style="shape=partialRectangle;connectable=0;fillColor=none;top=0;left=0;bottom=0;right=0;align=left;spacingLeft=6;overflow=hidden;" vertex="1" parent="tNgVJt8ZhCqIQZxRR8ER-18">
          <mxGeometry x="30" width="90" height="30" as="geometry" />
        </mxCell>
        <mxCell id="tNgVJt8ZhCqIQZxRR8ER-34" value="Details" style="shape=table;startSize=30;container=1;collapsible=1;childLayout=tableLayout;fixedRows=1;rowLines=0;fontStyle=1;align=center;resizeLast=1;" vertex="1" parent="1">
          <mxGeometry x="100" y="410" width="120" height="90" as="geometry" />
        </mxCell>
        <mxCell id="tNgVJt8ZhCqIQZxRR8ER-35" value="" style="shape=partialRectangle;collapsible=0;dropTarget=0;pointerEvents=0;fillColor=none;top=0;left=0;bottom=1;right=0;points=[[0,0.5],[1,0.5]];portConstraint=eastwest;" vertex="1" parent="tNgVJt8ZhCqIQZxRR8ER-34">
          <mxGeometry y="30" width="120" height="30" as="geometry" />
        </mxCell>
        <mxCell id="tNgVJt8ZhCqIQZxRR8ER-36" value="PK" style="shape=partialRectangle;connectable=0;fillColor=none;top=0;left=0;bottom=0;right=0;fontStyle=1;overflow=hidden;" vertex="1" parent="tNgVJt8ZhCqIQZxRR8ER-35">
          <mxGeometry width="30" height="30" as="geometry" />
        </mxCell>
        <mxCell id="tNgVJt8ZhCqIQZxRR8ER-37" value="ID (int)" style="shape=partialRectangle;connectable=0;fillColor=none;top=0;left=0;bottom=0;right=0;align=left;spacingLeft=6;fontStyle=5;overflow=hidden;" vertex="1" parent="tNgVJt8ZhCqIQZxRR8ER-35">
          <mxGeometry x="30" width="90" height="30" as="geometry" />
        </mxCell>
        <mxCell id="tNgVJt8ZhCqIQZxRR8ER-38" value="" style="shape=partialRectangle;collapsible=0;dropTarget=0;pointerEvents=0;fillColor=none;top=0;left=0;bottom=0;right=0;points=[[0,0.5],[1,0.5]];portConstraint=eastwest;" vertex="1" parent="tNgVJt8ZhCqIQZxRR8ER-34">
          <mxGeometry y="60" width="120" height="30" as="geometry" />
        </mxCell>
        <mxCell id="tNgVJt8ZhCqIQZxRR8ER-39" value="" style="shape=partialRectangle;connectable=0;fillColor=none;top=0;left=0;bottom=0;right=0;editable=1;overflow=hidden;" vertex="1" parent="tNgVJt8ZhCqIQZxRR8ER-38">
          <mxGeometry width="30" height="30" as="geometry" />
        </mxCell>
        <mxCell id="tNgVJt8ZhCqIQZxRR8ER-40" value="Code (int)" style="shape=partialRectangle;connectable=0;fillColor=none;top=0;left=0;bottom=0;right=0;align=left;spacingLeft=6;overflow=hidden;" vertex="1" parent="tNgVJt8ZhCqIQZxRR8ER-38">
          <mxGeometry x="30" width="90" height="30" as="geometry" />
        </mxCell>
        <mxCell id="tNgVJt8ZhCqIQZxRR8ER-76" value="" style="edgeStyle=entityRelationEdgeStyle;fontSize=12;html=1;endArrow=ERoneToMany;exitX=1;exitY=0.5;exitDx=0;exitDy=0;entryX=0;entryY=0.5;entryDx=0;entryDy=0;" edge="1" parent="1" source="tNgVJt8ZhCqIQZxRR8ER-42" target="tNgVJt8ZhCqIQZxRR8ER-62">
          <mxGeometry width="100" height="100" relative="1" as="geometry">
            <mxPoint x="500" y="470" as="sourcePoint" />
            <mxPoint x="600" y="370" as="targetPoint" />
          </mxGeometry>
        </mxCell>
        <mxCell id="tNgVJt8ZhCqIQZxRR8ER-41" value="Components" style="shape=table;startSize=30;container=1;collapsible=1;childLayout=tableLayout;fixedRows=1;rowLines=0;fontStyle=1;align=center;resizeLast=1;" vertex="1" parent="1">
          <mxGeometry x="360" y="280" width="160" height="160" as="geometry" />
        </mxCell>
        <mxCell id="tNgVJt8ZhCqIQZxRR8ER-42" value="" style="shape=partialRectangle;collapsible=0;dropTarget=0;pointerEvents=0;fillColor=none;top=0;left=0;bottom=1;right=0;points=[[0,0.5],[1,0.5]];portConstraint=eastwest;" vertex="1" parent="tNgVJt8ZhCqIQZxRR8ER-41">
          <mxGeometry y="30" width="160" height="30" as="geometry" />
        </mxCell>
        <mxCell id="tNgVJt8ZhCqIQZxRR8ER-43" value="PK" style="shape=partialRectangle;connectable=0;fillColor=none;top=0;left=0;bottom=0;right=0;fontStyle=1;overflow=hidden;" vertex="1" parent="tNgVJt8ZhCqIQZxRR8ER-42">
          <mxGeometry width="30" height="30" as="geometry" />
        </mxCell>
        <mxCell id="tNgVJt8ZhCqIQZxRR8ER-44" value="ID" style="shape=partialRectangle;connectable=0;fillColor=none;top=0;left=0;bottom=0;right=0;align=left;spacingLeft=6;fontStyle=5;overflow=hidden;" vertex="1" parent="tNgVJt8ZhCqIQZxRR8ER-42">
          <mxGeometry x="30" width="130" height="30" as="geometry" />
        </mxCell>
        <mxCell id="tNgVJt8ZhCqIQZxRR8ER-45" value="" style="shape=partialRectangle;collapsible=0;dropTarget=0;pointerEvents=0;fillColor=none;top=0;left=0;bottom=0;right=0;points=[[0,0.5],[1,0.5]];portConstraint=eastwest;" vertex="1" parent="tNgVJt8ZhCqIQZxRR8ER-41">
          <mxGeometry y="60" width="160" height="30" as="geometry" />
        </mxCell>
        <mxCell id="tNgVJt8ZhCqIQZxRR8ER-46" value="FK" style="shape=partialRectangle;connectable=0;fillColor=none;top=0;left=0;bottom=0;right=0;editable=1;overflow=hidden;" vertex="1" parent="tNgVJt8ZhCqIQZxRR8ER-45">
          <mxGeometry width="30" height="30" as="geometry" />
        </mxCell>
        <mxCell id="tNgVJt8ZhCqIQZxRR8ER-47" value="Units.ID" style="shape=partialRectangle;connectable=0;fillColor=none;top=0;left=0;bottom=0;right=0;align=left;spacingLeft=6;overflow=hidden;" vertex="1" parent="tNgVJt8ZhCqIQZxRR8ER-45">
          <mxGeometry x="30" width="130" height="30" as="geometry" />
        </mxCell>
        <mxCell id="tNgVJt8ZhCqIQZxRR8ER-48" value="" style="shape=partialRectangle;collapsible=0;dropTarget=0;pointerEvents=0;fillColor=none;top=0;left=0;bottom=0;right=0;points=[[0,0.5],[1,0.5]];portConstraint=eastwest;" vertex="1" parent="tNgVJt8ZhCqIQZxRR8ER-41">
          <mxGeometry y="90" width="160" height="30" as="geometry" />
        </mxCell>
        <mxCell id="tNgVJt8ZhCqIQZxRR8ER-49" value="FK" style="shape=partialRectangle;connectable=0;fillColor=none;top=0;left=0;bottom=0;right=0;editable=1;overflow=hidden;" vertex="1" parent="tNgVJt8ZhCqIQZxRR8ER-48">
          <mxGeometry width="30" height="30" as="geometry" />
        </mxCell>
        <mxCell id="tNgVJt8ZhCqIQZxRR8ER-50" value="Materials.ID" style="shape=partialRectangle;connectable=0;fillColor=none;top=0;left=0;bottom=0;right=0;align=left;spacingLeft=6;overflow=hidden;" vertex="1" parent="tNgVJt8ZhCqIQZxRR8ER-48">
          <mxGeometry x="30" width="130" height="30" as="geometry" />
        </mxCell>
        <mxCell id="tNgVJt8ZhCqIQZxRR8ER-51" value="" style="shape=partialRectangle;collapsible=0;dropTarget=0;pointerEvents=0;fillColor=none;top=0;left=0;bottom=0;right=0;points=[[0,0.5],[1,0.5]];portConstraint=eastwest;" vertex="1" parent="tNgVJt8ZhCqIQZxRR8ER-41">
          <mxGeometry y="120" width="160" height="30" as="geometry" />
        </mxCell>
        <mxCell id="tNgVJt8ZhCqIQZxRR8ER-52" value="FK" style="shape=partialRectangle;connectable=0;fillColor=none;top=0;left=0;bottom=0;right=0;editable=1;overflow=hidden;" vertex="1" parent="tNgVJt8ZhCqIQZxRR8ER-51">
          <mxGeometry width="30" height="30" as="geometry" />
        </mxCell>
        <mxCell id="tNgVJt8ZhCqIQZxRR8ER-53" value="Details.ID" style="shape=partialRectangle;connectable=0;fillColor=none;top=0;left=0;bottom=0;right=0;align=left;spacingLeft=6;overflow=hidden;" vertex="1" parent="tNgVJt8ZhCqIQZxRR8ER-51">
          <mxGeometry x="30" width="130" height="30" as="geometry" />
        </mxCell>
        <mxCell id="tNgVJt8ZhCqIQZxRR8ER-58" value="Income_Expensive_Book" style="shape=table;startSize=30;container=1;collapsible=1;childLayout=tableLayout;fixedRows=1;rowLines=0;fontStyle=1;align=center;resizeLast=1;" vertex="1" parent="1">
          <mxGeometry x="560" y="280" width="240" height="130" as="geometry" />
        </mxCell>
        <mxCell id="tNgVJt8ZhCqIQZxRR8ER-62" value="" style="shape=partialRectangle;collapsible=0;dropTarget=0;pointerEvents=0;fillColor=none;top=0;left=0;bottom=0;right=0;points=[[0,0.5],[1,0.5]];portConstraint=eastwest;" vertex="1" parent="tNgVJt8ZhCqIQZxRR8ER-58">
          <mxGeometry y="30" width="240" height="30" as="geometry" />
        </mxCell>
        <mxCell id="tNgVJt8ZhCqIQZxRR8ER-63" value="FK" style="shape=partialRectangle;connectable=0;fillColor=none;top=0;left=0;bottom=0;right=0;editable=1;overflow=hidden;" vertex="1" parent="tNgVJt8ZhCqIQZxRR8ER-62">
          <mxGeometry width="30" height="30" as="geometry" />
        </mxCell>
        <mxCell id="tNgVJt8ZhCqIQZxRR8ER-64" value="Components.ID" style="shape=partialRectangle;connectable=0;fillColor=none;top=0;left=0;bottom=0;right=0;align=left;spacingLeft=6;overflow=hidden;" vertex="1" parent="tNgVJt8ZhCqIQZxRR8ER-62">
          <mxGeometry x="30" width="210" height="30" as="geometry" />
        </mxCell>
        <mxCell id="tNgVJt8ZhCqIQZxRR8ER-65" value="" style="shape=partialRectangle;collapsible=0;dropTarget=0;pointerEvents=0;fillColor=none;top=0;left=0;bottom=0;right=0;points=[[0,0.5],[1,0.5]];portConstraint=eastwest;" vertex="1" parent="tNgVJt8ZhCqIQZxRR8ER-58">
          <mxGeometry y="60" width="240" height="30" as="geometry" />
        </mxCell>
        <mxCell id="tNgVJt8ZhCqIQZxRR8ER-66" value="" style="shape=partialRectangle;connectable=0;fillColor=none;top=0;left=0;bottom=0;right=0;editable=1;overflow=hidden;" vertex="1" parent="tNgVJt8ZhCqIQZxRR8ER-65">
          <mxGeometry width="30" height="30" as="geometry" />
        </mxCell>
        <mxCell id="tNgVJt8ZhCqIQZxRR8ER-67" value="Income (Float, Default NULL)" style="shape=partialRectangle;connectable=0;fillColor=none;top=0;left=0;bottom=0;right=0;align=left;spacingLeft=6;overflow=hidden;" vertex="1" parent="tNgVJt8ZhCqIQZxRR8ER-65">
          <mxGeometry x="30" width="210" height="30" as="geometry" />
        </mxCell>
        <mxCell id="tNgVJt8ZhCqIQZxRR8ER-68" value="" style="shape=partialRectangle;collapsible=0;dropTarget=0;pointerEvents=0;fillColor=none;top=0;left=0;bottom=0;right=0;points=[[0,0.5],[1,0.5]];portConstraint=eastwest;" vertex="1" parent="tNgVJt8ZhCqIQZxRR8ER-58">
          <mxGeometry y="90" width="240" height="30" as="geometry" />
        </mxCell>
        <mxCell id="tNgVJt8ZhCqIQZxRR8ER-69" value="" style="shape=partialRectangle;connectable=0;fillColor=none;top=0;left=0;bottom=0;right=0;editable=1;overflow=hidden;" vertex="1" parent="tNgVJt8ZhCqIQZxRR8ER-68">
          <mxGeometry width="30" height="30" as="geometry" />
        </mxCell>
        <mxCell id="tNgVJt8ZhCqIQZxRR8ER-70" value="Expensive (Float, Default NULL)" style="shape=partialRectangle;connectable=0;fillColor=none;top=0;left=0;bottom=0;right=0;align=left;spacingLeft=6;overflow=hidden;" vertex="1" parent="tNgVJt8ZhCqIQZxRR8ER-68">
          <mxGeometry x="30" width="210" height="30" as="geometry" />
        </mxCell>
      </root>
    </mxGraphModel>
  </diagram>
</mxfile>
